<svg width="13" height="13" viewBox="0 0 13 13" fill="none" xmlns="http://www.w3.org/2000/svg">
<path d="M6.5 0C2.90573 0 0 2.90573 0 6.5C0 10.0943 2.90573 13 6.5 13C10.0943 13 13 10.0943 13 6.5C13 2.90573 10.0943 0 6.5 0ZM6.5 11.9207C3.51186 11.9207 1.07935 9.48814 1.07935 6.5C1.07935 3.51186 3.51186 1.07935 6.5 1.07935C9.48814 1.07935 11.9207 3.51186 11.9207 6.5C11.9207 9.48814 9.48814 11.9207 6.5 11.9207Z" fill="#EDEDED"/>
<path d="M9.43231 3.56771C9.21166 3.34706 8.87935 3.34706 8.65869 3.56771L6.5 5.7264L4.34397 3.57037C4.12332 3.34972 3.791 3.34972 3.57035 3.57037C3.3497 3.79103 3.3497 4.12334 3.57035 4.34399L5.72638 6.50002L3.57035 8.65606C3.3497 8.87671 3.34172 9.217 3.57035 9.42968C3.74315 9.58919 4.07015 9.70616 4.34397 9.42968L6.5 7.27364L8.65604 9.42968C8.98569 9.74072 9.32066 9.54133 9.42966 9.42968C9.65031 9.20902 9.65031 8.87671 9.42966 8.65606L7.27362 6.50002L9.42966 4.34399C9.65297 4.12068 9.65297 3.78837 9.43231 3.56771Z" fill="#EDEDED"/>
</svg>
