<svg width="24" height="18" viewBox="0 0 24 18" fill="none" xmlns="http://www.w3.org/2000/svg">
<path d="M14.6299 0.968783C11.5898 0.950844 8.79312 2.58641 7.37705 5.18683L6.96139 5.00388C8.45018 2.26801 11.4036 0.530032 14.6323 0.549084C19.3957 0.577191 23.225 4.36026 23.1987 8.95084C23.1724 13.5414 19.3 17.279 14.5366 17.2509C11.3079 17.2319 8.37461 15.4592 6.91731 12.7059L7.33505 12.5279C8.72122 15.1448 11.499 16.8133 14.539 16.8312C19.0207 16.8577 22.7116 13.3357 22.7368 8.94816C22.7619 4.56066 19.1116 0.995228 14.6299 0.968783Z" fill="#EDEDED" stroke="#EDEDED"/>
<path d="M0.768449 7.36136L0.755737 9.60889L16.0168 9.70035L16.0295 7.45283L0.768449 7.36136Z" fill="#EDEDED"/>
<path d="M0.768449 7.36136L0.755737 9.60889L16.0168 9.70035L16.0295 7.45283L0.768449 7.36136Z" stroke="#EDEDED"/>
</svg>
