<svg width="16" height="16" viewBox="0 0 16 16" fill="none" xmlns="http://www.w3.org/2000/svg">
<g clip-path="url(#clip0_147_368)">
<path d="M8.00006 0C4.71009 0 2.03357 2.6776 2.03357 5.96886C2.03357 10.8726 7.40618 15.6607 7.63497 15.8622C7.73927 15.954 7.86964 16.0001 8.00006 16.0001C8.13049 16.0001 8.26086 15.9541 8.36521 15.8622C8.59389 15.6608 13.9666 10.8727 13.9666 5.96886C13.9666 2.6776 11.29 0 8.00006 0ZM8.00006 14.6903C6.81224 13.5393 3.13849 9.67865 3.13849 5.96886C3.13849 3.2869 5.31939 1.10492 8.00006 1.10492C10.6807 1.10492 12.8616 3.2869 12.8616 5.96886C12.8616 9.6786 9.18789 13.5392 8.00006 14.6903Z" fill="black"/>
<path d="M8.00003 3.18829C6.4769 3.18829 5.23779 4.43565 5.23779 5.96885C5.23779 7.5021 6.4769 8.7494 8.00003 8.7494C9.52315 8.7494 10.7623 7.5021 10.7623 5.96885C10.7623 4.43565 9.52315 3.18829 8.00003 3.18829ZM8.00003 7.64448C7.08614 7.64448 6.34266 6.89281 6.34266 5.96885C6.34266 5.04494 7.08614 4.29321 8.00003 4.29321C8.91391 4.29321 9.6574 5.04489 9.6574 5.96885C9.6574 6.89281 8.91391 7.64448 8.00003 7.64448Z" fill="black"/>
</g>
<defs>
<clipPath id="clip0_147_368">
<rect width="16" height="16" fill="white"/>
</clipPath>
</defs>
</svg>
