<svg width="19" height="18" viewBox="0 0 19 18" fill="none" xmlns="http://www.w3.org/2000/svg">
<path d="M12.146 12.5045L11.9906 11.7584L11.3681 12.1979C8.90516 13.9368 5.48789 13.6977 3.29325 11.471C0.824736 8.96457 0.824775 4.88254 3.29337 2.37619C5.75845 -0.125422 9.76856 -0.12544 12.2336 2.37622C14.4315 4.60734 14.6695 8.0857 12.9504 10.5926L12.5285 11.2078L13.2579 11.3643C13.4327 11.4017 13.5971 11.4871 13.7297 11.6212C13.7297 11.6212 13.7298 11.6213 13.7299 11.6214L17.6044 15.5547L17.605 15.5553C17.9764 15.931 17.9771 16.5441 17.6045 16.9222L17.604 16.9228C17.2387 17.2947 16.6471 17.2961 16.2776 16.9221C16.2775 16.922 16.2774 16.922 16.2774 16.9219L12.4026 12.9895C12.2688 12.8538 12.1838 12.6858 12.146 12.5045ZM3.80435 10.9312L3.8044 10.9312C5.9863 13.1462 9.54008 13.1461 11.7225 10.9313C13.9009 8.72051 13.9009 5.12736 11.7225 2.91661L11.7224 2.91655C9.54004 0.702377 5.98634 0.702302 3.80445 2.9166L3.80435 2.91671C1.62724 5.12744 1.62724 8.72043 3.80435 10.9312Z" fill="black" stroke="#EDEDED"/>
</svg>
