<svg width="16" height="16" viewBox="0 0 16 16" fill="none" xmlns="http://www.w3.org/2000/svg">
<path d="M15.4058 8.84306H13.2217V6.74397H15.4058C15.734 6.74397 16 6.47821 16 6.14997C16 5.82169 15.734 5.55576 15.4058 5.55576H13.2217V2.64317C13.2217 2.21801 13.1377 1.90595 12.9721 1.71586C12.8147 1.53502 12.6077 1.45087 12.3211 1.45087C12.0476 1.45087 11.8485 1.53444 11.6941 1.71415C11.5304 1.90443 11.4473 2.21707 11.4473 2.64337V5.55612H7.33893L5.59208 2.91274C5.44258 2.67683 5.30201 2.45585 5.1655 2.24374C5.04259 2.05271 4.92272 1.89718 4.80949 1.78105C4.70925 1.67823 4.59502 1.59866 4.46142 1.5375C4.33536 1.47995 4.17509 1.45106 3.98548 1.45106C3.74364 1.45106 3.52411 1.51732 3.31389 1.65344C3.10588 1.78808 2.96208 1.95454 2.87426 2.16236C2.79717 2.35987 2.75638 2.66252 2.75638 3.05318V5.55592H0.593977C0.26586 5.55596 0 5.82188 0 6.15013C0 6.47837 0.26586 6.74414 0.594009 6.74414H2.75642V8.84345H0.594009C0.26586 8.84345 0 9.1093 0 9.43765C0 9.7658 0.26586 10.0315 0.594009 10.0315H2.75642V13.3569C2.75642 13.7695 2.84311 14.0784 3.01483 14.2747C3.17813 14.4618 3.38518 14.5487 3.66635 14.5487C3.93763 14.5487 4.14307 14.4614 4.31343 14.2739C4.48789 14.0818 4.57613 13.7731 4.57613 13.3569V10.0315H8.29378L10.3056 13.1164C10.4455 13.3203 10.5899 13.5261 10.734 13.728C10.8639 13.9092 11.0057 14.0689 11.1553 14.2023C11.2901 14.3229 11.4345 14.4113 11.5847 14.4653C11.7392 14.5209 11.9199 14.5491 12.1203 14.5491C12.6644 14.5491 13.2216 14.3826 13.2216 13.1473V10.0315H15.4057C15.7339 10.0315 15.9999 9.76541 15.9999 9.43726C16 9.10911 15.734 8.84306 15.4058 8.84306ZM11.4473 6.74394V8.84303H9.51152L8.12448 6.74394H11.4473ZM4.57616 4.33202L5.37445 5.55576H4.57616V4.33202ZM4.57616 8.84306V6.74397H6.14959L7.51874 8.84306H4.57616ZM11.4473 11.7729L10.2969 10.0315H11.4473V11.7729Z" fill="black"/>
</svg>
