<svg width="22" height="23" viewBox="0 0 22 23" fill="none" xmlns="http://www.w3.org/2000/svg">
<path d="M19.9762 12.4374L19.9762 12.4375C19.9822 12.4405 19.9871 12.4433 19.9912 12.4458C19.9678 12.5032 19.8692 12.6343 19.6299 12.7097L4.67263 17.4246C4.43425 17.4998 4.28049 17.4485 4.22918 17.4144C4.23118 17.41 4.23371 17.4048 4.23694 17.3989L4.23696 17.3988L5.75533 14.6087L5.85665 14.4226L5.79621 14.221L4.55942 10.0949C4.29874 9.22532 4.51067 8.24286 5.15379 7.3039C5.79704 6.36475 6.85359 5.5027 8.19331 4.92556L8.6087 4.74662L8.47902 4.31399L8.20258 3.39177C8.20489 3.38191 8.21331 3.35965 8.24132 3.32398C8.29778 3.25205 8.40849 3.1669 8.56892 3.11632C8.72935 3.06575 8.86759 3.07243 8.95369 3.09942C8.9964 3.1128 9.01557 3.12636 9.02288 3.13319L9.29933 4.05544L9.42901 4.48807L9.8707 4.39684C11.2952 4.10262 12.6415 4.20723 13.6881 4.6137C14.7345 5.02008 15.448 5.71083 15.7086 6.58046L16.9454 10.7064L17.0059 10.9081L17.1917 11.0037L19.9762 12.4374ZM20.0083 12.459C20.0083 12.459 20.0078 12.4586 20.0071 12.4576L20.0083 12.459ZM4.22212 17.4354C4.22207 17.4354 4.2221 17.4348 4.22235 17.4336L4.22212 17.4354ZM8.20189 3.39773C8.20175 3.39774 8.20168 3.39658 8.20208 3.39422C8.20222 3.39654 8.20202 3.39772 8.20189 3.39773ZM9.02671 3.13772C9.0266 3.13779 9.02578 3.13693 9.02464 3.13493C9.02626 3.13665 9.02683 3.13765 9.02671 3.13772ZM5.72436 15.8954L5.62304 16.0816L5.68348 16.2832L5.68349 16.2832L5.82706 16.7622L6.30394 16.6118L17.8349 12.977L19.0051 12.6081L17.922 12.0504L16.2066 11.1672L16.2066 11.1672C16.1926 11.16 16.1846 11.1539 16.1806 11.1504L14.8883 6.83906C14.5823 5.81835 13.7218 5.13392 12.6814 4.80789C11.6383 4.48102 10.3651 4.49283 9.10093 4.89132C7.83683 5.28979 6.77695 6.01344 6.09298 6.88473C5.41076 7.75378 5.07372 8.81569 5.37969 9.83641L6.67201 14.1477C6.67065 14.1529 6.66738 14.1625 6.65977 14.1765L6.65976 14.1766L5.72436 15.8954Z" fill="black" stroke="#EDEDED"/>
<path d="M10.9624 18.412C10.8797 18.1362 10.9505 17.7828 11.2405 17.4134C11.5288 17.0463 12.0056 16.7083 12.6105 16.5177C13.2154 16.327 13.795 16.3321 14.2346 16.4698C14.677 16.6084 14.9291 16.86 15.0118 17.1359C15.0945 17.4116 15.0237 17.765 14.7337 18.1344C14.4454 18.5016 13.9687 18.8396 13.3638 19.0302C12.7589 19.2208 12.1793 19.2158 11.7396 19.078C11.2973 18.9394 11.0451 18.6878 10.9624 18.412ZM11.7822 18.1537C11.8847 18.4956 12.1626 18.6899 12.4267 18.7726C12.6935 18.8562 12.9966 18.8479 13.2821 18.7579C13.5677 18.6679 13.823 18.5002 13.9979 18.2774C14.1711 18.0568 14.2945 17.736 14.1921 17.3942C14.0896 17.0524 13.8117 16.8581 13.5476 16.7753C13.2808 16.6918 12.9777 16.7 12.6922 16.79C12.4066 16.88 12.1513 17.0477 11.9764 17.2705C11.8032 17.491 11.6797 17.8119 11.7822 18.1537Z" fill="black" stroke="#EDEDED"/>
<circle cx="14" cy="5" r="3.5" fill="#FD5959" stroke="#2C3E50"/>
</svg>
