<svg width="23" height="23" viewBox="0 0 23 23" fill="none" xmlns="http://www.w3.org/2000/svg">
<path d="M20.4725 13.2039L20.4726 13.2039C20.4785 13.207 20.4834 13.2098 20.4875 13.2123C20.4641 13.2697 20.3655 13.4008 20.1262 13.4762L5.16897 18.1911C4.93058 18.2662 4.77683 18.215 4.72552 18.1809C4.72751 18.1764 4.73005 18.1713 4.73328 18.1654L4.7333 18.1653L6.25167 15.3752L6.35299 15.189L6.29255 14.9874L5.05576 10.8614C4.79508 9.9918 5.00701 9.00934 5.65013 8.07038C6.29338 7.13123 7.34993 6.26918 8.68965 5.69204L9.10504 5.5131L8.97535 5.08047L8.69892 4.15825C8.70123 4.14839 8.70965 4.12613 8.73766 4.09046C8.79412 4.01853 8.90482 3.93338 9.06526 3.8828C9.22569 3.83223 9.36392 3.83891 9.45003 3.8659C9.49274 3.87928 9.5119 3.89284 9.51922 3.89967L9.79567 4.82192L9.92535 5.25455L10.367 5.16332C11.7916 4.8691 13.1379 4.97371 14.1844 5.38018C15.2308 5.78656 15.9443 6.47731 16.205 7.34694L17.4418 11.4729L17.5022 11.6745L17.688 11.7702L20.4725 13.2039ZM20.5046 13.2255C20.5046 13.2255 20.5042 13.2251 20.5034 13.2241L20.5046 13.2255ZM4.71846 18.2019C4.71841 18.2019 4.71844 18.2013 4.71869 18.2L4.71846 18.2019ZM8.69823 4.16421C8.69809 4.16422 8.69802 4.16306 8.69842 4.1607C8.69856 4.16302 8.69836 4.1642 8.69823 4.16421ZM9.52305 3.9042C9.52293 3.90427 9.52212 3.90341 9.52097 3.90141C9.5226 3.90313 9.52317 3.90413 9.52305 3.9042ZM6.2207 16.6619L6.11938 16.848L6.17981 17.0496L6.17982 17.0497L6.32339 17.5286L6.80028 17.3783L18.3312 13.7435L19.5014 13.3746L18.4183 12.8169L16.7029 11.9337L16.7029 11.9337C16.6889 11.9265 16.6809 11.9203 16.677 11.9168L15.3846 7.60554C15.0787 6.58483 14.2182 5.9004 13.1777 5.57437C12.1346 5.2475 10.8614 5.25931 9.59727 5.6578C8.33317 6.05627 7.27329 6.77992 6.58932 7.6512C5.9071 8.52026 5.57006 9.58217 5.87602 10.6029L7.16835 14.9142C7.16698 14.9193 7.16372 14.929 7.15611 14.943L7.1561 14.943L6.2207 16.6619Z" fill="black" stroke="#EDEDED"/>
<path d="M11.4588 19.1785C11.3761 18.9027 11.4469 18.5493 11.7369 18.1799C12.0252 17.8128 12.502 17.4748 13.1068 17.2842C13.7117 17.0935 14.2913 17.0985 14.731 17.2363C15.1733 17.3749 15.4254 17.6265 15.5081 17.9023C15.5908 18.1781 15.5201 18.5315 15.23 18.9009C14.9418 19.2681 14.465 19.606 13.8601 19.7967C13.2553 19.9873 12.6756 19.9823 12.236 19.8445C11.7936 19.7059 11.5415 19.4543 11.4588 19.1785ZM12.2785 18.9202C12.381 19.2621 12.659 19.4563 12.9231 19.5391C13.1898 19.6227 13.493 19.6144 13.7785 19.5244C14.064 19.4344 14.3193 19.2667 14.4943 19.0438C14.6674 18.8233 14.7909 18.5025 14.6884 18.1607C14.5859 17.8188 14.308 17.6246 14.0439 17.5418C13.7771 17.4582 13.474 17.4665 13.1885 17.5565C12.903 17.6465 12.6477 17.8142 12.4727 18.037C12.2996 18.2575 12.176 18.5783 12.2785 18.9202Z" fill="black" stroke="#EDEDED"/>
</svg>
