<svg width="18" height="18" viewBox="0 0 18 18" fill="none" xmlns="http://www.w3.org/2000/svg">
<path d="M1.59855 17.2021C1.59804 17.2021 1.59741 17.2021 1.59665 17.2021C1.59199 17.2019 1.58281 17.2015 1.56976 17.2006C1.54351 17.1987 1.50268 17.1946 1.45235 17.1861C1.34935 17.1687 1.2195 17.1347 1.09559 17.0719C0.973787 17.01 0.866104 16.9248 0.787592 16.8053C0.710899 16.6885 0.642578 16.5098 0.642578 16.2269C0.642578 15.6154 0.957926 14.2679 2.13391 13.0743C3.29478 11.8961 5.3374 10.8262 8.86351 10.8262C12.3896 10.8262 14.4322 11.8961 15.5931 13.0743C16.7691 14.2679 17.0844 15.6154 17.0844 16.2269C17.0844 16.5098 17.0161 16.6885 16.9394 16.8053C16.8609 16.9248 16.7532 17.01 16.6314 17.0719C16.5075 17.1347 16.3777 17.1687 16.2747 17.1861C16.2243 17.1946 16.1835 17.1987 16.1573 17.2006C16.1442 17.2015 16.135 17.2019 16.1304 17.2021C16.1293 17.2021 16.1285 17.2021 16.1279 17.2021M1.59855 17.2021L1.5978 17.2021L1.597 17.2021H1.59916C1.59898 17.2021 1.59878 17.2021 1.59855 17.2021ZM1.59855 17.2021L1.59904 17.2021L1.60008 17.2022L1.59924 17.2021L16.1279 17.2021M16.1279 17.2021C16.1274 17.2021 16.1272 17.2021 16.127 17.2021L16.128 17.2021L16.1292 17.2021L16.13 17.2021H16.1279ZM16.1309 16.7211H16.633L16.6309 16.219C16.629 15.7308 16.3586 14.5124 15.2778 13.4154C14.2194 12.3412 12.2984 11.3014 8.86351 11.3014C5.42709 11.3014 3.50763 12.3412 2.44921 13.4154C1.36773 14.513 1.09997 15.7312 1.09608 16.217L1.09205 16.7211H1.59607H16.1309ZM11.5907 7.20393C10.8661 7.93931 9.88496 8.35106 8.86351 8.35106C7.84206 8.35106 6.86092 7.93931 6.13636 7.20393C5.41154 6.4683 5.00304 5.46902 5.00304 4.42553C5.00304 3.38205 5.41154 2.38276 6.13636 1.64713C6.86092 0.911755 7.84206 0.5 8.86351 0.5C9.88496 0.5 10.8661 0.911755 11.5907 1.64713C12.3155 2.38276 12.724 3.38205 12.724 4.42553C12.724 5.46902 12.3155 6.4683 11.5907 7.20393ZM11.2752 6.86267C11.9133 6.21506 12.2705 5.33825 12.2705 4.42553C12.2705 3.51281 11.9133 2.63601 11.2752 1.98839C10.6369 1.34052 9.7695 0.975177 8.86351 0.975177C7.95751 0.975177 7.09015 1.34052 6.4518 1.98839C5.81371 2.63601 5.45653 3.51281 5.45653 4.42553C5.45653 5.33825 5.81371 6.21506 6.4518 6.86267C7.09015 7.51054 7.95751 7.87589 8.86351 7.87589C9.7695 7.87589 10.6369 7.51054 11.2752 6.86267Z" fill="black" stroke="#EDEDED"/>
</svg>
