<svg width="18" height="18" viewBox="0 0 18 18" fill="none" xmlns="http://www.w3.org/2000/svg">
<path d="M16.9373 6.86635L16.9373 6.8662C16.932 6.8488 16.9236 6.83784 16.9169 6.83187C16.9104 6.82604 16.9062 6.82525 16.9052 6.8251L16.9051 6.82508L11.5303 5.99389L11.2658 5.95298L11.1531 5.71018L8.7496 0.52933C8.7427 0.514457 8.73429 0.506738 8.72901 0.503245C8.72407 0.49998 8.72155 0.499997 8.72109 0.5L8.72106 0.5L8.72103 0.5C8.72051 0.499998 8.71797 0.499987 8.71302 0.503259C8.70775 0.506742 8.69937 0.514432 8.69248 0.529248L16.9373 6.86635ZM16.9373 6.86635C16.9492 6.9052 16.9361 6.94219 16.9197 6.95914L16.9196 6.95927L13.0305 10.9921L12.857 11.172L12.8968 11.4188L13.8081 17.0707L13.8108 17.0878L13.8148 17.1047C13.8166 17.1127 13.8177 17.1211 13.8177 17.1302C13.8177 17.16 13.8066 17.1807 13.7959 17.1921C13.7857 17.203 13.7801 17.2021 13.7801 17.2021H13.78H13.78H13.78H13.78H13.78H13.78H13.78H13.7799H13.7799H13.7799H13.7799H13.7799H13.7799H13.7799H13.7798H13.7798H13.7798H13.7798H13.7798H13.7798H13.7798H13.7797H13.7797H13.7797H13.7797H13.7797H13.7797H13.7797H13.7796H13.7796H13.7796H13.7796H13.7796H13.7796H13.7795H13.7795H13.7795H13.7795H13.7795H13.7795H13.7795H13.7794H13.7794H13.7794H13.7794H13.7794H13.7794H13.7794H13.7793H13.7793H13.7793H13.7793H13.7793H13.7793H13.7793H13.7792H13.7792H13.7792H13.7792H13.7792H13.7792H13.7792H13.7791H13.7791H13.7791H13.7791H13.7791H13.7791H13.779H13.779H13.779H13.779H13.779H13.779H13.779H13.7789H13.7789H13.7789H13.7789H13.7789H13.7789H13.7789H13.7788H13.7788H13.7788H13.7788H13.7788H13.7788H13.7788H13.7787H13.7787H13.7787H13.7787H13.7787H13.7787H13.7787H13.7786H13.7786H13.7786H13.7786H13.7786H13.7786H13.7785H13.7785H13.7785H13.7785H13.7785C13.7779 17.2021 13.776 17.202 13.7725 17.2001L13.7724 17.2L8.9651 14.5117L8.72106 14.3752L8.47702 14.5117L3.66962 17.2L3.66954 17.2001C3.66713 17.2014 3.66562 17.2018 3.66496 17.202C3.66476 17.202 3.66456 17.202 3.66438 17.2021C3.66391 17.2021 3.6635 17.2021 3.6631 17.2021C3.66252 17.2021 3.65916 17.2018 3.65332 17.1973L3.6532 17.1972M16.9373 6.86635L3.6532 17.1972M0.522258 6.95931L0.522286 6.95934L4.41163 10.9922L4.58514 11.1721L4.54535 11.4189L3.62732 17.113L0.522258 6.95931ZM0.522258 6.95931C0.505746 6.94219 0.492645 6.90518 0.504514 6.86625L0.522258 6.95931ZM3.6532 17.1972C3.63968 17.1868 3.62047 17.1557 3.6273 17.1131L3.6532 17.1972ZM12.7973 11.0772L12.7973 11.0772C12.7835 11.0915 12.7707 11.1212 12.7764 11.1567L12.7764 11.1568L13.5582 16.0052L13.7228 17.0258L12.8205 16.5212L8.72726 14.2322L8.7272 14.2321C8.72348 14.23 8.72159 14.2301 8.72114 14.2301C8.72069 14.2301 8.71885 14.23 8.71521 14.2321L8.71506 14.2322L4.62171 16.5212L3.71949 17.0258L3.88405 16.0052L4.66583 11.1568L4.66585 11.1567C4.67155 11.1213 4.65883 11.0917 4.64493 11.0772H12.7973ZM12.7973 11.0772L16.109 7.6433L16.7782 6.94941L15.8256 6.80208L11.249 6.09435C11.2489 6.09433 11.2336 6.0914 11.2214 6.0652L11.2214 6.06517L9.17484 1.65382L8.72127 0.67616L8.26771 1.65382L6.22114 6.06517L6.22109 6.06528C6.20899 6.09136 6.19378 6.0943 6.19352 6.09434L6.1935 6.09435L1.61671 6.80208L0.664012 6.9494L1.33322 7.6433L4.64486 11.0771L12.7973 11.0772ZM6.28893 5.71018L8.69244 0.52933L0.504529 6.8662C0.509828 6.84889 0.518233 6.83794 0.524916 6.83195C0.531445 6.82609 0.535748 6.82524 0.536821 6.82508L5.91177 5.99389L6.17628 5.95298L6.28893 5.71018Z" fill="black" stroke="#EDEDED"/>
</svg>
