<svg width="16" height="16" viewBox="0 0 16 16" fill="none" xmlns="http://www.w3.org/2000/svg">
<g clip-path="url(#clip0_147_210)">
<path d="M15.9757 6.16241C15.9177 5.98387 15.7634 5.85374 15.5776 5.82678L10.6471 5.11002L8.44222 0.642365C8.3591 0.474025 8.18767 0.367432 8 0.367432C7.81226 0.367432 7.64083 0.474025 7.55771 0.642365L5.35285 5.11002L0.422195 5.82678C0.236363 5.85381 0.0820293 5.98394 0.0240309 6.16241C-0.0339676 6.34094 0.0143645 6.5369 0.148839 6.66795L3.71666 10.1456L2.8745 15.0559C2.84281 15.2409 2.91882 15.4279 3.07066 15.5382C3.22249 15.6486 3.42384 15.6632 3.59001 15.5758L8 13.2575L12.4099 15.5758C12.4821 15.6137 12.5609 15.6324 12.6393 15.6324C12.6398 15.6324 12.6403 15.6324 12.6407 15.6324C12.6407 15.6324 12.6407 15.6324 12.6408 15.6324C12.9132 15.6324 13.134 15.4116 13.134 15.1392C13.134 15.0978 13.1288 15.0577 13.1193 15.0193L12.2833 10.1455L15.851 6.66789C15.9854 6.53696 16.0338 6.34094 15.9757 6.16241ZM11.4091 9.62028C11.2929 9.73358 11.2398 9.89686 11.2673 10.0568L11.9845 14.2378L8.22956 12.2639C8.08588 12.1883 7.91425 12.1883 7.77063 12.2639L4.01566 14.2378L4.73282 10.0568C4.7603 9.89686 4.70724 9.73365 4.59098 9.62028L1.55303 6.65914L5.75147 6.04884C5.91212 6.0255 6.051 5.92463 6.12281 5.77904L8.00019 1.97501L9.87758 5.77904C9.94939 5.92456 10.0883 6.0255 10.2488 6.04884L14.4471 6.65914L11.4091 9.62028Z" fill="black"/>
</g>
<defs>
<clipPath id="clip0_147_210">
<rect width="16" height="16" fill="white"/>
</clipPath>
</defs>
</svg>
