<svg width="16" height="16" viewBox="0 0 16 16" fill="none" xmlns="http://www.w3.org/2000/svg">
<path d="M15.7345 6.50894L11.5664 9.53714L13.1586 14.437C13.2448 14.7023 13.1501 14.9928 12.9249 15.157C12.8116 15.2389 12.6792 15.2799 12.5461 15.2799C12.4132 15.2799 12.2804 15.2389 12.168 15.157L8.00008 12.1286L3.83239 15.1566C3.60631 15.3208 3.30081 15.3208 3.07519 15.1566C2.85008 14.9928 2.75529 14.7023 2.84156 14.437L4.4334 9.53692L0.265713 6.50894C0.0400599 6.34495 -0.0547259 6.05456 0.0315447 5.78919C0.118032 5.52384 0.365514 5.3443 0.64417 5.3443H5.79587L7.38771 0.444775C7.47398 0.179469 7.72128 0 8.00033 0C8.27939 0 8.52626 0.179469 8.61242 0.444775L10.2043 5.3443H15.3564C15.6349 5.3443 15.8823 5.52388 15.9689 5.78919C16.0544 6.05456 15.9595 6.34495 15.7345 6.50894Z" fill="black"/>
</svg>
