<svg width="16" height="16" viewBox="0 0 16 16" fill="none" xmlns="http://www.w3.org/2000/svg">
<g clip-path="url(#clip0_147_372)">
<path d="M8.03026 10.3614C8.72772 10.3614 9.29516 9.79455 9.29516 9.09781C9.29516 8.50548 8.88489 8.00731 8.33336 7.87131V5.87221C8.33336 5.68811 8.18412 5.53888 8.00002 5.53888C7.81592 5.53888 7.66669 5.68811 7.66669 5.87221V7.88798C7.14689 8.04455 6.76709 8.52755 6.76709 9.09781C6.76709 9.79455 7.33376 10.3614 8.03026 10.3614ZM8.03026 8.50105C8.36012 8.50105 8.62849 8.76875 8.62849 9.09781C8.62849 9.42695 8.36012 9.69471 8.03026 9.69471C7.70132 9.69471 7.43376 9.42695 7.43376 9.09781C7.43376 8.76875 7.70136 8.50105 8.03026 8.50105Z" fill="black"/>
<path d="M15.5266 4.03897L12.9061 1.41917C12.776 1.28903 12.5649 1.28903 12.4347 1.4192C12.3046 1.5494 12.3046 1.76043 12.4348 1.8906L13.4238 2.87943L12.4235 3.87963C11.2765 2.8835 9.85185 2.30147 8.33338 2.209V2.17727H9.93941C10.4897 2.17727 11.1028 1.74503 11.1028 1.12477V0.992133C11.1028 0.3711 10.5113 0 9.93941 0H6.06091C5.48995 0 5.14908 0.3709 5.14908 0.992133V1.12477C5.14908 1.76413 5.50701 2.17727 6.06091 2.17727H7.66671V2.2C6.08218 2.2539 4.63151 2.84423 3.49105 3.79503L2.57591 2.87973L3.56528 1.8906C3.69548 1.76043 3.69548 1.5494 3.56535 1.4192C3.43521 1.289 3.22415 1.28897 3.09395 1.41917L1.86965 2.64313C1.86938 2.6434 1.86905 2.64363 1.86878 2.64393C1.86851 2.64423 1.86825 2.64453 1.86798 2.6448L0.473513 4.03897C0.343313 4.16913 0.343313 4.38017 0.473446 4.51037C0.538546 4.57547 0.623846 4.60803 0.70918 4.60803C0.79448 4.60803 0.87978 4.5755 0.944846 4.51043L2.10445 3.3511L2.99961 4.24643C1.76541 5.49407 1.00205 7.2084 1.00205 9.09783C1.00208 12.9037 4.09845 16 7.90441 16C11.7106 16 14.8072 12.9037 14.8072 9.0978C14.8072 7.3113 14.1334 5.62863 12.9059 4.3401L13.8953 3.3508L15.0552 4.51043C15.1203 4.5755 15.2056 4.60803 15.2909 4.60803C15.3762 4.60803 15.4615 4.57547 15.5266 4.51037C15.6568 4.38017 15.6568 4.1691 15.5266 4.03897ZM9.34045 0.666667H9.93941C10.1743 0.666667 10.4361 0.800333 10.4361 0.992133V1.12477C10.4361 1.31947 10.1901 1.5106 9.93941 1.5106H9.34045V0.666667ZM6.65965 1.5106H6.06091C5.98135 1.5106 5.81575 1.5106 5.81575 1.12477V0.992133C5.81575 0.666667 5.93485 0.666667 6.06091 0.666667H6.65965V1.5106ZM7.32631 1.5106V0.666667H8.67378V1.5106H7.32631ZM7.90441 4.35133C10.522 4.35133 12.6516 6.4806 12.6516 9.0978C12.6516 11.715 10.522 13.8442 7.90441 13.8442C5.28735 13.8442 3.15818 11.715 3.15818 9.0978C3.15818 6.48057 5.28735 4.35133 7.90441 4.35133ZM14.1406 9.09777C14.1406 12.5361 11.343 15.3333 7.90441 15.3333C4.46605 15.3333 1.66875 12.5361 1.66875 9.0978C1.66875 5.73907 4.33815 2.99253 7.66671 2.86713V3.6902C4.79191 3.81507 2.49151 6.19267 2.49151 9.0978C2.49151 12.0826 4.91971 14.5108 7.90441 14.5108C10.8896 14.5108 13.3183 12.0826 13.3183 9.0978C13.3183 6.25733 11.1188 3.921 8.33338 3.70163V2.87713C11.5726 3.0983 14.1406 5.8036 14.1406 9.09777Z" fill="black"/>
</g>
<defs>
<clipPath id="clip0_147_372">
<rect width="16" height="16" fill="white"/>
</clipPath>
</defs>
</svg>
